<svg xmlns="http://www.w3.org/2000/svg" viewBox="0 0 922 1108"><title>electric_square_logo_white_transparent</title><g id="Layer_3" data-name="Layer 3"><path d="M110.06,921.14h16.42v4.18H110.06v18.94h24.77v4.17h-42V898h42v4.18H110.06Zm-4.61,0V902.21h-8v18.93Zm0,23.12V925.32h-8v18.94Z" fill="#fff"/><path d="M167.37,925.32H163.2v18.94h19.73v4.17H146V898H163.2v23.11h4.17Zm-8.78-4.18V902.21h-8v18.93Zm0,23.12V925.32h-8v18.94Z" fill="#fff"/><path d="M210.57,921.14H227v4.18H210.57v18.94h24.77v4.17h-42V898h42v4.18H210.57Zm-4.61,0V902.21h-8v18.93Zm0,23.12V925.32h-8v18.94Z" fill="#fff"/><path d="M291.86,909.69,288,911.93A22.79,22.79,0,0,0,268.39,901a22.49,22.49,0,0,0-22.54,20.16h8c1.08-6.69,7.2-11.73,14.55-11.73A15,15,0,0,1,281,916l-4,2.3a10.13,10.13,0,0,0-8.64-4.68,9.66,9.66,0,1,0,0,19.3A10.11,10.11,0,0,0,277,928.2l4,2.3a14.94,14.94,0,0,1-12.6,6.56c-7.35,0-13.47-5-14.55-11.74h-8a22.48,22.48,0,0,0,22.54,20.16A22.8,22.8,0,0,0,288,934.54l3.89,2.23a27.36,27.36,0,0,1-23.47,13c-15,0-27.29-11.88-27.29-26.5s12.24-26.5,27.29-26.5A27.38,27.38,0,0,1,291.86,909.69Z" fill="#fff"/><path d="M328.73,921.14h4.17v4.18h-4.17v23.11H311.52V925.32h-4.18v-4.18h4.18V902.21H296.18V898h47.88v4.18H328.73Zm-4.61,0V902.21h-8v18.93Zm0,23.12V925.32h-8v18.94Z" fill="#fff"/><path d="M379.41,898c10.59,0,19.16,8.06,19.16,18s-8.36,17.71-18.73,17.93l17.72,14.47h-7L372.93,934h-.43v14.47H354.86V898Zm-11.52,4.18h-8.42v15.12l8.42,6.84ZM359.47,923v6.76h8.28Zm8.42,21.24V934h-8.42v10.3Zm11.52-14.48c8,0,14.48-6.19,14.48-13.75s-6.49-13.82-14.48-13.82H372.5V928l2.23,1.8Z" fill="#fff"/><path d="M408.28,898h17.21v50.4H408.28Zm12.6,46.23v-42h-8v42Z" fill="#fff"/><path d="M485.61,909.69l-3.88,2.24A22.81,22.81,0,0,0,462.14,901a22.49,22.49,0,0,0-22.54,20.16h8c1.08-6.69,7.2-11.73,14.54-11.73a15,15,0,0,1,12.6,6.55l-4,2.3a10.13,10.13,0,0,0-8.64-4.68,9.66,9.66,0,1,0,0,19.3,10.11,10.11,0,0,0,8.64-4.68l4,2.3a14.94,14.94,0,0,1-12.6,6.56c-7.34,0-13.46-5-14.54-11.74h-8a22.48,22.48,0,0,0,22.54,20.16,22.82,22.82,0,0,0,19.59-10.94l3.88,2.23a27.36,27.36,0,0,1-23.47,13c-15.05,0-27.29-11.88-27.29-26.5s12.24-26.5,27.29-26.5A27.38,27.38,0,0,1,485.61,909.69Z" fill="#fff"/><path d="M562.44,914.09h-4.61c0-7.42-7.35-13.18-16.35-13.18s-16.41,5.76-16.41,13.18l.07.93h16.34c11.6,0,21,7.56,21,17.36s-9.36,17.35-21,17.35-21-7.63-21-17.35h4.61c0,7.41,7.34,13.17,16.41,13.17s16.35-5.76,16.35-13.17v-.94H541.48c-11.59,0-21-7.56-21-17.35s9.43-17.36,21-17.36S562.44,904.37,562.44,914.09Zm-36.15,5.11c2.45,4.82,8.35,8.06,15.19,8.06H556.6c-2.44-4.82-8.28-8.06-15.12-8.06Z" fill="#fff"/><path d="M624.57,923.23a25.91,25.91,0,0,1-5,15.34l4,3.31v5.69l-6.92-5.69a27.73,27.73,0,0,1-19.37,7.85c-15,0-27.29-11.88-27.29-26.5s12.24-26.5,27.29-26.5S624.57,908.61,624.57,923.23Zm-50,0a22.45,22.45,0,0,0,22.68,22.25,22.87,22.87,0,0,0,15.92-6.41l-6.41-5.25a15.51,15.51,0,0,1-9.51,3.24c-8.13,0-14.68-6.2-14.68-13.83s6.55-13.82,14.68-13.82,14.77,6.19,14.77,13.82a12.9,12.9,0,0,1-2.31,7.35l6.34,5.18A22.23,22.23,0,0,0,620,923.23a22.69,22.69,0,0,0-45.37,0Zm13.75-4.46a9.45,9.45,0,0,0-1.15,4.46,9.89,9.89,0,0,0,10.08,9.65,10.93,10.93,0,0,0,6.05-1.87Zm3-3.31,15,12.24a9.26,9.26,0,0,0,1.16-4.47,9.91,9.91,0,0,0-10.16-9.65A10.43,10.43,0,0,0,591.31,915.46Z" fill="#fff"/><path d="M675.91,929.35c0,11.24-9.36,20.38-20.95,20.38s-21-9.14-21-20.38V898h17.64v47.09a13.11,13.11,0,0,0,3.39.36,16.24,16.24,0,0,0,16.34-16.13V898h4.61Zm-37.37,0A16.17,16.17,0,0,0,647,943.47V902.21h-8.42Z" fill="#fff"/><path d="M715.94,934H705.07l-6.77,14.47h-5L708,917l-4.39-9.44-19.08,40.9h-5l24.12-51.62,24,51.62h-5Zm-5.47-11.59L707,929.71h6.91Z" fill="#fff"/><path d="M759.43,898c10.58,0,19.15,8.06,19.15,18s-8.35,17.71-18.72,17.93l17.71,14.47h-7L753,934h-.44v14.47H734.87V898Zm-11.52,4.18h-8.43v15.12l8.43,6.84ZM739.48,923v6.76h8.28Zm8.43,21.24V934h-8.43v10.3Zm11.52-14.48c8,0,14.47-6.19,14.47-13.75s-6.48-13.82-14.47-13.82h-6.92V928l2.24,1.8Z" fill="#fff"/><path d="M805.51,921.14h16.41v4.18H805.51v18.94h24.77v4.17h-42V898h42v4.18H805.51Zm-4.61,0V902.21h-8v18.93Zm0,23.12V925.32h-8v18.94Z" fill="#fff"/><path d="M560,678.69c-13.76-8.31-27.89-15.09-32.1-28.78-.06-.17-.75-63.42-.92-78.31a3.25,3.25,0,0,0-2.77-3.18L500,573.36l-.12-.06-.34.06-1.8-.89s18.27-6.21,27.78-15.06c6-5.6,14.69-17.91,19-29.78a100.41,100.41,0,0,0,5.58-25.21l4.55-28.8a51.79,51.79,0,0,1-7.11,2.17,47.49,47.49,0,0,1-10.69,1.36h-1.18l-.86,0a44.65,44.65,0,0,1-7.37-.84,1.66,1.66,0,0,1-1.32-1.88,1.58,1.58,0,0,1,.81-1.1l.13-.08c1.69-.92,4.47-2.68,7.34-4.55a40.13,40.13,0,0,0,15.13-18.29L555,437.14a85.08,85.08,0,0,1-1.15-10.47c-10.42-2.6-18.65-8.48-24.07-12.89a29.22,29.22,0,0,0-4.71-3,10.9,10.9,0,0,1-4.25,7.6l-1.73-.66.39-.33a9.65,9.65,0,0,0,3.83-7.5,42.55,42.55,0,0,0-8-2.82,3.84,3.84,0,0,1-1.63,7.32c-1.86,0-3.94-1.28-4.33-3,2.94,1.65,5-.61,5-2.15a3,3,0,0,0-1.45-2.54,18,18,0,0,0-2.58-.37h-1.08a28,28,0,0,0-4.42.47,9.74,9.74,0,0,0,1.68,8.87l.49.53-2.06.24a10.87,10.87,0,0,1-2.09-9.17,29.09,29.09,0,0,0-9.91,5.22,1.71,1.71,0,0,1-1.35.3c-1.12.21-1.93-.82-2.41-1.77a1.68,1.68,0,0,1,.59-2.15c8.9-5.74,17-7.66,23.93-7.53,15.46,0,25.59,10.21,27.29,11.7,1.3,1.14,4.85,1.42,7.93,1.44,2.56,0,4.66-.2,4.66-.2l0,.05.5,0a91,91,0,0,0-2.08-23.09,2.37,2.37,0,0,1-1.09-1c-.06-.1-6.27-10.6-13.44-14.05-4.54-2.18-10.68-3.22-16-3.26a23.87,23.87,0,0,0-7.75,1.15c-3.55,1.35-12.53,2.39-27.44,3.16a4.24,4.24,0,0,1-.62,0l-.25,0a4.65,4.65,0,0,1-4.73-5.83l.56-2.14a4.68,4.68,0,0,1,4.5-3.48,95,95,0,0,0,14.85-1.54,103.41,103.41,0,0,1,18.15-1.71,77.13,77.13,0,0,1,8.17.43c7.15.77,13,4.45,17.62,8.76-7.56-13.25-20.81-25.42-43.67-31.51-10.3-2.93-21.53-3.6-29.51-3.62-4.62,0-8,.23-9.39.34h-1.11c-1.35-.11-4.77-.33-9.39-.34-8,0-19.21.69-29.51,3.62-22.86,6.09-36.11,18.26-43.67,31.51,4.58-4.31,10.47-8,17.62-8.76a77.13,77.13,0,0,1,8.17-.43,103.41,103.41,0,0,1,18.15,1.71A95,95,0,0,0,437,365.77a4.68,4.68,0,0,1,4.5,3.48l.56,2.14a4.65,4.65,0,0,1-4.73,5.83l-.25,0a4.24,4.24,0,0,1-.62,0c-14.91-.77-23.89-1.81-27.44-3.16a23.87,23.87,0,0,0-7.75-1.15c-5.29,0-11.43,1.08-16,3.26-7.17,3.45-13.38,13.95-13.44,14.05a2.37,2.37,0,0,1-1.09,1,91,91,0,0,0-2.08,23.09c.1,0,2.57.17,5.13.19,3.08,0,6.63-.3,7.93-1.44,1.7-1.49,11.83-11.68,27.29-11.7,7-.13,15,1.79,23.93,7.53a1.68,1.68,0,0,1,.59,2.15c-.48.95-1.29,2-2.4,1.77a1.72,1.72,0,0,1-1.36-.3,29.09,29.09,0,0,0-9.91-5.22,11,11,0,0,1,.27,2.36,11.23,11.23,0,0,1-2.44,6.9l-2-.33.49-.53a9.74,9.74,0,0,0,1.68-8.87,28,28,0,0,0-4.42-.47h-1.08a16.6,16.6,0,0,0-2.58.37,3,3,0,0,0-1.45,2.54,3,3,0,0,0,2.68,2.94,3.42,3.42,0,0,0,2.33-.79c-.8,3.12-4.22,3-4.33,3a3.84,3.84,0,0,1-1.63-7.32,42.55,42.55,0,0,0-8,2.82,9.65,9.65,0,0,0,3.83,7.5l.39.33-1.62.82a11.37,11.37,0,0,1-4.36-7.76,29.22,29.22,0,0,0-4.71,3c-5.42,4.41-13.65,10.29-24.07,12.89a85.08,85.08,0,0,1-1.15,10.47l5.45,13.24a40.13,40.13,0,0,0,15.13,18.29c2.87,1.87,5.65,3.63,7.34,4.55l.13.08a1.58,1.58,0,0,1,.81,1.1,1.66,1.66,0,0,1-1.32,1.88,44.65,44.65,0,0,1-7.37.84l-.85,0h-1.19a47.31,47.31,0,0,1-10.68-1.36,51.6,51.6,0,0,1-7.12-2.17l4.55,28.8a100.41,100.41,0,0,0,5.58,25.21c4.3,11.87,13,24.18,19,29.78,9.51,8.85,27.79,15.06,27.79,15.06l-1.81.89-.33-.06-.13.06-24.23-4.94a3.25,3.25,0,0,0-2.77,3.18c-.17,14.89-.86,78.14-.92,78.31-4.21,13.69-18.33,20.47-32.1,28.78-10.58,6.39-24,9.41-35.39,11.47L461.38,824.21l134-134.05C584.06,688.1,570.62,685.08,560,678.69Zm-93-233.9a2.12,2.12,0,0,1,1.24-.14,9.84,9.84,0,0,1,5,1.39c4.57,2.87,4.83,5.34,4.2,6.24a2.31,2.31,0,0,1-2.17.75,7.12,7.12,0,0,1-4.14-1.3,19.13,19.13,0,0,1-4.49-4.14A2,2,0,0,1,467.06,444.79ZM449.47,446a9.84,9.84,0,0,1,5-1.39,2.11,2.11,0,0,1,1.24.14,2,2,0,0,1,.38,2.8,19.13,19.13,0,0,1-4.49,4.14,7.1,7.1,0,0,1-4.14,1.3,2.31,2.31,0,0,1-2.17-.75C444.64,451.38,444.9,448.91,449.47,446Zm-27.62,57.74a3.15,3.15,0,0,1-.91-2.44,3.21,3.21,0,0,1,.47-1.66c1.31-2.09,3.57-5.55,6.47-9.33,8-10.61,14.8-15.58,20.15-17.68l.12-.05c.4-.16.78-.29,1.15-.41l.43-.14c.44-.14.87-.26,1.29-.35l.26-.05c.45-.1.88-.17,1.3-.23h0a16.12,16.12,0,0,1,2.71-.13,12.51,12.51,0,0,1,5.64,1.23,1.53,1.53,0,0,0,.41.14,1.59,1.59,0,0,0,.4-.14,12.51,12.51,0,0,1,5.64-1.23,16.12,16.12,0,0,1,2.71.13h0c.42.06.86.13,1.3.23l.26.05c.42.09.85.21,1.29.35l.43.14c.37.12.75.25,1.15.41l.12.05c5.35,2.1,12.17,7.07,20.15,17.68,2.9,3.78,5.16,7.24,6.47,9.33a3.49,3.49,0,0,1-.44,4.1,22.42,22.42,0,0,1-9.45,5.43A34.44,34.44,0,0,1,479.64,511c-.77,0-1.54,0-2.34-.05-1,0-2,0-3.05-.07a80.58,80.58,0,0,1-11.94-.63c-.31-.05-.62-.06-.93-.08s-.63,0-.94.08a80.58,80.58,0,0,1-11.94.63c-1,0-2,.06-3.05.07-.8,0-1.57.05-2.34.05a34.44,34.44,0,0,1-11.81-1.76A22.42,22.42,0,0,1,421.85,503.78ZM462,810.07h0l-.31-.31-.31.31h0l-63.93-63.93.79.15-.16-.15a301,301,0,0,0,127.24,0l-.16.15.78-.15Z" fill="#fff"/><path d="M440.56,498c4.45-.79,15.14-2.59,20.46-2.59h.71c5.32,0,16,1.8,20.46,2.59a.67.67,0,0,0,.22-1,40.59,40.59,0,0,0-4.08-4.2c-4-3.49-9.91-7.34-16.95-7.49-7.05.15-13,4-17,7.49a40.59,40.59,0,0,0-4.08,4.2A.67.67,0,0,0,440.56,498Z" fill="#fff"/><path d="M592.44,537.3c-.57,4-3.26,17-14.82,22.62-1,.83-6.07,5.16-7.73,10.15-5.54,16.6-21.42,26.42-37.74,27.85,0,9,.07,24.72.17,36.37A199.1,199.1,0,0,0,660.11,448.4c0-109.82-89-198.87-198.73-199-109.79.17-198.74,89.22-198.74,199A199.1,199.1,0,0,0,390.43,634.29c.1-11.65.21-27.41.17-36.37-16.32-1.43-32.2-11.25-37.74-27.85-1.66-5-6.72-9.32-7.73-10.15-11.56-5.67-14.25-18.58-14.81-22.62-13.34-9.14-13-23.65-12.61-28-4-4.7-8.17-14.81.72-25,9.1-10.4,21.17-31.71,23.84-36.49-2.78-7.65-16.83-52.28,10.4-106.5.54-1.22,7.12-15.52,23.39-30,15.32-13.62,42.49-29.9,85-30.07h.72c42.46.17,69.63,16.45,85,30.07,16.27,14.47,22.85,28.77,23.39,30,27.23,54.22,13.18,98.85,10.4,106.5,2.67,4.78,14.74,26.09,23.84,36.49,8.89,10.16,4.73,20.27.72,25C605.46,513.65,605.77,528.16,592.44,537.3Z" fill="#fff"/><path d="M369,421.81a22.69,22.69,0,0,0,9-5c-.35,0-.83,0-1.39,0-2.3,0-6.7-.44-7.91-2.52,0,.79.08,1.73.12,2.45C369,418.42,369,420.12,369,421.81Z" fill="#fff"/><path d="M818.68,424.87,461.38,67.57,104.07,424.87l-21,21,16,16.05L323.79,686.62c3.74-.64,7.74-1.39,11.82-2.32L192.69,541.38h0l-1-1a285.75,285.75,0,0,1,2.82-191.88l1-1h0L360.82,182.27h0l.38-.38a282.86,282.86,0,0,1,99.86-18h.63a282.86,282.86,0,0,1,99.86,18l.38.38h0L727.19,347.53h0l1,1A285.84,285.84,0,0,1,731,540.42l-1,1h0L587.14,684.3c4.08.93,8.08,1.68,11.82,2.32L823.64,461.94l16.05-16.05Zm-654.1,87.78L97.2,445.89,166,377.67a306.55,306.55,0,0,0-1.46,135ZM531.8,152.13a301.32,301.32,0,0,0-140.22,0l.19-.18-.82.18,70.42-70.42h0l.31.32.31-.32h0l70.42,70.42-.81-.18Zm227,360.52a306.36,306.36,0,0,0-1.47-135l68.85,68.22Z" fill="#fff"/><path d="M831.67,379.36V75.59H527.91L461,8.69l-66.91,66.9h-303v303l-67,67,67,67V816.19H394.61L461,882.57l66.39-66.38H831.67V511.9l66.27-66.27Zm-86-217.77V293.36L613.91,161.59Zm-568.59,0h131l-131,131Zm0,568.6V598.65L308.61,730.19Zm568.59,0H613.39L745.67,597.9ZM461.38,866.64h0L40.63,445.89,461.37,25.15h0L882.12,445.89Z" fill="#fff"/><path d="M544.72,416.78a22.69,22.69,0,0,0,9,5c0-1.69.07-3.39.18-5.08,0-.72.08-1.47.11-2.26-1.21,2.09-5.6,2.34-7.9,2.33C545.55,416.8,545.07,416.8,544.72,416.78Z" fill="#fff"/><path d="M276.34,1012H266.9l-2.52,7h-1.77l8.16-21.77h1.84l8.13,21.77h-1.86Zm-8.88-1.62h8.28l-4.14-11.29Z" fill="#fff"/><path d="M306.51,1006.44l8.16-9.26h4.53l-9.2,10.3L320.24,1019h-5.18l-8.55-9.85V1019h-4V997.18h4Z" fill="#fff"/><path d="M342.93,997.18l-.68,3.51H332V1006h10.12l-.65,3.52H332v5.87h11l-.66,3.52H328V997.18Z" fill="#fff"/><path d="M357.86,1019v-9l-7.69-12.75h4.38l5.35,9.35,5.27-9.35h4.26l-7.63,12.72V1019Z" fill="#fff"/><path d="M398.3,997.18h3.85L397.42,1019H393.1l-3.88-16.12-4,16.12h-4.38l-4.68-21.77h4.06l3,16.57,4.15-16.57h3.66l4.09,16.6Z" fill="#fff"/><path d="M418.8,1019.5a14.32,14.32,0,0,1-4.57-.62,6.21,6.21,0,0,1-2.84-1.85,7,7,0,0,1-1.45-3.11,21.84,21.84,0,0,1-.4-4.39v-3a21.1,21.1,0,0,1,.39-4.28,6.92,6.92,0,0,1,1.42-3.11,6.44,6.44,0,0,1,2.82-1.92,13.93,13.93,0,0,1,4.63-.65,14.44,14.44,0,0,1,4.59.61,6.27,6.27,0,0,1,2.85,1.85,6.85,6.85,0,0,1,1.45,3.12,21,21,0,0,1,.4,4.38v3a21.82,21.82,0,0,1-.38,4.28,7.12,7.12,0,0,1-1.42,3.12,6.52,6.52,0,0,1-2.84,1.91A13.77,13.77,0,0,1,418.8,1019.5Zm0-3.46a11.58,11.58,0,0,0,2.61-.24,2.89,2.89,0,0,0,1.58-.95,4.34,4.34,0,0,0,.8-2,20.94,20.94,0,0,0,.22-3.41v-2.78a20.53,20.53,0,0,0-.22-3.38,4.43,4.43,0,0,0-.8-2,2.8,2.8,0,0,0-1.58-1,13.7,13.7,0,0,0-5.21,0,2.85,2.85,0,0,0-1.58.94,4.14,4.14,0,0,0-.79,2,22.33,22.33,0,0,0-.2,3.41v2.78a22.25,22.25,0,0,0,.2,3.38,4.22,4.22,0,0,0,.79,2,2.83,2.83,0,0,0,1.58,1A11.55,11.55,0,0,0,418.8,1016Z" fill="#fff"/><path d="M445.34,1010.91h-4.08v8h-3.94V997.18h8.2q4,0,5.78,1.48c1.21,1,1.82,2.62,1.82,4.91v.92a6.51,6.51,0,0,1-1,3.83,5.49,5.49,0,0,1-3,2l4.94,8.59h-4.38Zm3.84-7a6,6,0,0,0-.19-1.69,2.12,2.12,0,0,0-.62-1,2.37,2.37,0,0,0-1.15-.48,10.1,10.1,0,0,0-1.79-.13h-4.17v6.85h4.17a9.15,9.15,0,0,0,1.79-.14,2.49,2.49,0,0,0,1.15-.5,2.07,2.07,0,0,0,.62-1,6,6,0,0,0,.19-1.68Z" fill="#fff"/><path d="M462.38,997.18h8.13a14.45,14.45,0,0,1,4.47.59,6.44,6.44,0,0,1,2.82,1.79,6.83,6.83,0,0,1,1.48,3,18.15,18.15,0,0,1,.43,4.22v2.53a17.79,17.79,0,0,1-.43,4.18,7,7,0,0,1-1.48,3,6.29,6.29,0,0,1-2.81,1.83,13.51,13.51,0,0,1-4.42.62h-8.19Zm3.93,18.25h4a10.43,10.43,0,0,0,2.48-.26,3.21,3.21,0,0,0,1.64-.95,4.25,4.25,0,0,0,.9-1.91,14.26,14.26,0,0,0,.28-3.15v-2.23a14.38,14.38,0,0,0-.28-3.15,4.31,4.31,0,0,0-.9-1.91,3.11,3.11,0,0,0-1.64-.93,11,11,0,0,0-2.48-.25h-4Z" fill="#fff"/><path d="M498.26,1006.41a10.08,10.08,0,0,1,2.46.75,4.41,4.41,0,0,1,1.59,1.21,4.58,4.58,0,0,1,.86,1.74,9,9,0,0,1,.27,2.32v.49a8.24,8.24,0,0,1-.4,2.69,4.21,4.21,0,0,1-1.35,1.9,6.09,6.09,0,0,1-2.5,1.13,17.33,17.33,0,0,1-3.86.37h-2.85c-1.16,0-2.67,0-4.54-.06l.62-3.46,2.11,0h4.72a14,14,0,0,0,2-.12,3,3,0,0,0,1.24-.43,1.47,1.47,0,0,0,.62-.81,4.26,4.26,0,0,0,.16-1.3,6.12,6.12,0,0,0-.09-1.14,1.53,1.53,0,0,0-.37-.8,2,2,0,0,0-.79-.52,8,8,0,0,0-1.38-.35l-3.58-.61a10.26,10.26,0,0,1-2.62-.77,4.59,4.59,0,0,1-1.61-1.2,4.13,4.13,0,0,1-.81-1.7,10,10,0,0,1-.22-2.23V1003a6.9,6.9,0,0,1,.41-2.48,4.38,4.38,0,0,1,1.33-1.85,6.61,6.61,0,0,1,2.41-1.16,13.89,13.89,0,0,1,3.68-.41h4.8l2.22,0-.63,3.45c-1.47,0-2.72-.06-3.74-.06H495.6a11.52,11.52,0,0,0-1.84.12,2.82,2.82,0,0,0-1.12.42,1.47,1.47,0,0,0-.58.78,3.84,3.84,0,0,0-.16,1.22,5.34,5.34,0,0,0,.09,1.07,1.66,1.66,0,0,0,.35.73,1.92,1.92,0,0,0,.77.51,6.32,6.32,0,0,0,1.3.32Z" fill="#fff"/><path d="M534.08,1007.33a6,6,0,0,1,3.52,1.66,5.54,5.54,0,0,1,1.13,3.81v.37a7.66,7.66,0,0,1-.4,2.63,4.07,4.07,0,0,1-1.32,1.82,6,6,0,0,1-2.36,1,16.07,16.07,0,0,1-3.52.34h-2.77c-1,0-2.29,0-3.83-.06l.32-1.66c1.36.05,2.54.07,3.52.07h2.76a16,16,0,0,0,2.85-.22,4.14,4.14,0,0,0,1.8-.73,2.73,2.73,0,0,0,.94-1.36,7.33,7.33,0,0,0,.26-2.1,6.78,6.78,0,0,0-.16-1.59,2.63,2.63,0,0,0-.58-1.14,2.89,2.89,0,0,0-1.11-.77,8.33,8.33,0,0,0-1.76-.47l-4-.7a8.61,8.61,0,0,1-2.25-.65,4,4,0,0,1-1.46-1.08,3.93,3.93,0,0,1-.79-1.55,8.44,8.44,0,0,1-.23-2.07v-.43a6.23,6.23,0,0,1,.37-2.22,3.92,3.92,0,0,1,1.22-1.7,6.16,6.16,0,0,1,2.24-1.08,13.18,13.18,0,0,1,3.42-.38h4.18l2.09,0-.36,1.65-2-.05h-4a13.65,13.65,0,0,0-2.62.21,4,4,0,0,0-1.67.71,2.62,2.62,0,0,0-.89,1.23,5.31,5.31,0,0,0-.27,1.79,7.08,7.08,0,0,0,.15,1.55,2.66,2.66,0,0,0,.55,1.13,2.76,2.76,0,0,0,1.08.76,7.9,7.9,0,0,0,1.74.48Z" fill="#fff"/><path d="M563.58,997.18l-.36,1.65H556V1019h-1.74V998.83h-7.54l.35-1.65Z" fill="#fff"/><path d="M580.2,1019.5a11.93,11.93,0,0,1-3.8-.52,5.07,5.07,0,0,1-2.35-1.59,6.43,6.43,0,0,1-1.2-2.71,18.82,18.82,0,0,1-.34-3.84V997.18h1.75v13.66a15.59,15.59,0,0,0,.31,3.44,4.82,4.82,0,0,0,1,2.16,3.71,3.71,0,0,0,1.84,1.11,10.16,10.16,0,0,0,2.79.33,10.67,10.67,0,0,0,2.9-.34,3.7,3.7,0,0,0,1.84-1.16,4.92,4.92,0,0,0,.94-2.17,17.57,17.57,0,0,0,.27-3.37V997.18h1.74v13.66a17.37,17.37,0,0,1-.38,4,6.22,6.22,0,0,1-1.29,2.68,5.28,5.28,0,0,1-2.38,1.53A11.91,11.91,0,0,1,580.2,1019.5Z" fill="#fff"/><path d="M598.43,997.18h6.71a14.08,14.08,0,0,1,4.27.56,6.32,6.32,0,0,1,2.8,1.76,7.22,7.22,0,0,1,1.54,3,17.7,17.7,0,0,1,.47,4.33v2.41a17.87,17.87,0,0,1-.47,4.35,7.15,7.15,0,0,1-1.54,3,6.23,6.23,0,0,1-2.8,1.76,13.75,13.75,0,0,1-4.27.57h-6.71Zm1.74,20.11h5a12.39,12.39,0,0,0,3.48-.41,4.67,4.67,0,0,0,2.24-1.36,5.41,5.41,0,0,0,1.2-2.51,17.2,17.2,0,0,0,.36-3.82v-2.29a16.94,16.94,0,0,0-.36-3.78,5.48,5.48,0,0,0-1.2-2.49,4.76,4.76,0,0,0-2.24-1.37,12,12,0,0,0-3.48-.43h-5Z" fill="#fff"/><path d="M626.08,997.18V1019h-1.74V997.18Z" fill="#fff"/><path d="M644.72,1019.5a12.86,12.86,0,0,1-4-.54,5.76,5.76,0,0,1-2.62-1.67,6.88,6.88,0,0,1-1.44-2.87,17.19,17.19,0,0,1-.44-4.13v-4.49a16.94,16.94,0,0,1,.43-4.07,6.64,6.64,0,0,1,1.43-2.87,6.26,6.26,0,0,1,2.64-1.7,12.52,12.52,0,0,1,4-.56,13.42,13.42,0,0,1,4,.53,5.79,5.79,0,0,1,2.63,1.67,6.88,6.88,0,0,1,1.44,2.87,17.19,17.19,0,0,1,.44,4.13v4.49a17,17,0,0,1-.43,4.09,6.51,6.51,0,0,1-1.43,2.85,6.14,6.14,0,0,1-2.65,1.7A12.44,12.44,0,0,1,644.72,1019.5Zm0-1.62a12,12,0,0,0,3.18-.37,4.35,4.35,0,0,0,2.09-1.26,5.23,5.23,0,0,0,1.14-2.35,16.86,16.86,0,0,0,.34-3.64v-4.43a16.6,16.6,0,0,0-.34-3.62,5.24,5.24,0,0,0-1.14-2.34,4.53,4.53,0,0,0-2.09-1.27,11.53,11.53,0,0,0-3.18-.38,12,12,0,0,0-3.18.36,4.27,4.27,0,0,0-2.07,1.26,5.21,5.21,0,0,0-1.12,2.35,16.25,16.25,0,0,0-.34,3.64v4.43a16.09,16.09,0,0,0,.34,3.63,5.14,5.14,0,0,0,1.13,2.33,4.37,4.37,0,0,0,2.09,1.27A11,11,0,0,0,644.72,1017.88Z" fill="#fff"/></g></svg>